<svg id="be893deb-b041-406e-84b8-fb26e8113287" data-name="Layer 1" xmlns="http://www.w3.org/2000/svg" viewBox="0 0 243.93 25.25"><title>Untitled-1 [Recovered]</title><g id="bc1dbe26-033e-4b6a-bffd-311e351cbd67" data-name="Page-1"><path id="e35a75b1-37e8-425e-8758-5675e57b3482" data-name="Shape" d="M105.12,1.56h33.69a1.25,1.25,0,0,1,1.26,1.26V13.88a50.5,50.5,0,0,1-8.21,4.34A87.79,87.79,0,0,1,114,23.74h-8.92a1.26,1.26,0,0,1-1.26-1.26V2.82A1.25,1.25,0,0,1,105.12,1.56Zm-2.77,1.26V22.48a2.77,2.77,0,0,0,2.77,2.77h33.69a2.77,2.77,0,0,0,2.77-2.77V2.82A2.77,2.77,0,0,0,138.81.05H105.12a2.77,2.77,0,0,0-2.77,2.77Z" fill="#fff"/><path id="aa77e1cc-f43b-46cc-891e-3a86c2da1022" data-name="path20-path" d="M105.74,8.32v5h1.51a2.86,2.86,0,0,0,1.89-.57,2.46,2.46,0,0,0,1-1.92,2.56,2.56,0,0,0-2.84-2.49Zm2.73,3.74a2,2,0,0,1-1.42.4h-.27V9.16h.27a2,2,0,0,1,1.42.41,1.65,1.65,0,0,1,.57,1.24,1.67,1.67,0,0,1-.57,1.25Z" fill="#fff"/><path id="bd171bf0-ed4a-41ab-8e2e-3c3c4bda3d20" data-name="path22" d="M110.58,13.3h1v-5h-1v5Z" fill="#fff"/><path id="ae978cd4-03b5-431f-957b-bc2b57399188" data-name="path24" d="M114.14,10.22c-.62-.22-.81-.36-.81-.63s.33-.55.77-.55a1.11,1.11,0,0,1,.84.4l.54-.66a2.41,2.41,0,0,0-1.56-.56,1.52,1.52,0,0,0-1.65,1.43c0,.69.33,1,1.3,1.37a4.18,4.18,0,0,1,.72.28.61.61,0,0,1,.31.52.74.74,0,0,1-.81.7,1.22,1.22,0,0,1-1.12-.66l-.67.6a2.09,2.09,0,0,0,1.83.95,1.66,1.66,0,0,0,1.83-1.64c0-.79-.35-1.15-1.52-1.55" fill="#fff"/><path id="b12caf41-241e-4a2d-82d5-98069fe78d37" data-name="path26" d="M116,10.8a2.66,2.66,0,0,0,2.79,2.6,3,3,0,0,0,1.3-.29V12a1.7,1.7,0,0,1-1.25.54,1.68,1.68,0,0,1-1.78-1.72,1.71,1.71,0,0,1,1.73-1.71,1.82,1.82,0,0,1,1.3.56V8.5a2.76,2.76,0,0,0-1.27-.31A2.71,2.71,0,0,0,116,10.8" fill="#fff"/><path id="b176a577-36af-4021-b921-41dbdc4d4d87" data-name="path28" d="M128.27,11.66l-1.42-3.35h-1.12L128,13.42h.56l2.29-5.11H129.7l-1.43,3.35" fill="#fff"/><path id="ebefa0f9-cb1d-4052-98a1-73f408793c7e" data-name="path30" d="M131.28,13.3h2.93v-.84h-1.89V11.11h1.82v-.84h-1.82V9.16h1.89V8.32h-2.93v5" fill="#fff"/><path id="bdaf0ddb-2f4a-48d9-bf09-c034eb195666" data-name="path32-path" d="M138.3,9.79c0-.93-.68-1.47-1.87-1.47H134.9v5h1v-2h.13l1.43,2h1.27l-1.66-2.1a1.35,1.35,0,0,0,1.2-1.41Zm-2.07.82h-.3V9.1h.32c.64,0,1,.26,1,.74s-.35.77-1,.77Z" fill="#fff"/><path id="b231dd96-a926-42e2-8754-0790685eb4a1" data-name="path44" d="M120.41,10.81h0a2.83,2.83,0,0,1,5.64,0h0a2.83,2.83,0,0,1-5.64,0" fill="#fff"/></g><g id="af509da9-f79b-4da1-b2b8-44fc96e0f0fa" data-name="Page-1"><path d="M87.64,25.25H53.94a2.77,2.77,0,0,1-2.76-2.77V2.82A2.77,2.77,0,0,1,53.94.05h33.7A2.77,2.77,0,0,1,90.4,2.82V22.48A2.77,2.77,0,0,1,87.64,25.25ZM53.94,1.56a1.25,1.25,0,0,0-1.25,1.26V22.48a1.26,1.26,0,0,0,1.25,1.26h33.7a1.26,1.26,0,0,0,1.25-1.26V2.82a1.25,1.25,0,0,0-1.25-1.26Z" fill="#fff"/><path id="f5c1c266-9dea-4f2c-9146-3f0a6b2f0c11" data-name="path14-path" d="M87.33,12.65a10.26,10.26,0,0,1-16.54,8.1,10.25,10.25,0,1,1,0-16.21,10.27,10.27,0,0,1,16.54,8.11ZM77.05,3.3a9.32,9.32,0,0,0-5.56,1.84,10.18,10.18,0,0,1,3,4.92h-1a9.32,9.32,0,0,0-2.72-4.34,9.39,9.39,0,0,0-2.71,4.34h-1a10.18,10.18,0,0,1,3-4.92,9.33,9.33,0,1,0,0,15,10.18,10.18,0,0,1-2.85-4.59h1a9.37,9.37,0,0,0,2.6,4,9.3,9.3,0,0,0,2.61-4h1a10.18,10.18,0,0,1-2.85,4.59A9.34,9.34,0,1,0,77.05,3.3Z" fill="#fff"/><path d="M77.06,22.92a10.26,10.26,0,0,1-6.27-2.13,10.28,10.28,0,1,1,0-16.28,10.16,10.16,0,0,1,6.27-2.14,10.28,10.28,0,1,1,0,20.55Zm-6.27-2.2h0a10.23,10.23,0,1,0,0-16.17h0a10.11,10.11,0,0,0-6.26-2.14,10.23,10.23,0,1,0,0,20.45,10.13,10.13,0,0,0,6.26-2.14ZM77.05,22a9.3,9.3,0,0,1-5.57-1.83l0,0,0,0a10.17,10.17,0,0,0,2.84-4.55H73.4a9.35,9.35,0,0,1-2.61,4l0,0v0a9.45,9.45,0,0,1-2.61-4h-.91a10.17,10.17,0,0,0,2.84,4.55l0,0,0,0a9.36,9.36,0,1,1,0-15l0,0,0,0A10.31,10.31,0,0,0,67.14,10H68A9.31,9.31,0,0,1,70.76,5.7h0A9.47,9.47,0,0,1,73.51,10h.9a10.31,10.31,0,0,0-2.94-4.88l0,0,0,0A9.36,9.36,0,1,1,77.05,22Zm-5.52-1.86a9.22,9.22,0,0,0,5.52,1.81,9.31,9.31,0,1,0,0-18.61,9.22,9.22,0,0,0-5.52,1.81,10.21,10.21,0,0,1,2.93,4.91v0h-1a9.22,9.22,0,0,0-2.69-4.32,9.28,9.28,0,0,0-2.68,4.32h-1v0A10.21,10.21,0,0,1,70,5.14,9.22,9.22,0,0,0,64.5,3.33a9.31,9.31,0,1,0,0,18.61A9.22,9.22,0,0,0,70,20.13a10.28,10.28,0,0,1-2.84-4.57v0h1v0a9.32,9.32,0,0,0,2.58,4,9.25,9.25,0,0,0,2.59-4v0h1v0A10.28,10.28,0,0,1,71.53,20.13Z" fill="#fff"/><path id="bacffac1-29e1-4f43-896a-5dbf46264788" data-name="path13" d="M60.72,10.4h-1.5l-.93,2.78,0-2.78H56.86l-.75,4.49H57l.58-3.43.08,3.43h.66l1.23-3.45L59,14.89h1l.75-4.49Z" fill="#fff"/><path id="a144f961-e4a1-4357-a3ef-d36cce968feb" data-name="path15" d="M63.2,14.89h-.8l0-.38a1.2,1.2,0,0,1-1,.44.9.9,0,0,1-.88-1c0-.89.62-1.41,1.69-1.41l.4,0a.81.81,0,0,0,0-.24c0-.24-.16-.33-.61-.33a3,3,0,0,0-1,.17l.13-.83a3.86,3.86,0,0,1,1.15-.19c.83,0,1.27.37,1.27,1.07a4.84,4.84,0,0,1-.08.73c-.08.53-.26,1.66-.29,1.94Zm-.67-1.61-.22,0c-.55,0-.82.19-.82.56a.33.33,0,0,0,.34.37c.39,0,.68-.37.7-.91Z" fill="#fff"/><path id="baaf9498-5f13-476d-a2bb-4824bfb052ca" data-name="path17" d="M75.83,10.29c-1.28,0-2.17,1.13-2.17,2.74,0,1.19.64,1.94,1.68,1.94a2.88,2.88,0,0,0,.85-.14l.17-1a1.83,1.83,0,0,1-.82.23c-.56,0-.9-.41-.9-1.09,0-1,.51-1.69,1.23-1.69a1.84,1.84,0,0,1,.86.24l.16-1a3.19,3.19,0,0,0-1.06-.24Z" fill="#fff"/><path id="eae0d8b1-703f-4164-b0f7-a392d677bf6a" data-name="path19" d="M79.3,14.89h-.8l0-.38a1.22,1.22,0,0,1-1,.44.9.9,0,0,1-.89-1c0-.89.63-1.41,1.7-1.41l.39,0a.9.9,0,0,0,0-.24c0-.24-.17-.33-.62-.33a3.11,3.11,0,0,0-1,.17l.13-.83a3.87,3.87,0,0,1,1.16-.19c.82,0,1.26.37,1.26,1.07a4.84,4.84,0,0,1-.08.73c-.08.53-.26,1.66-.28,1.94Zm-.68-1.61-.22,0c-.54,0-.82.19-.82.56a.34.34,0,0,0,.35.37c.39,0,.67-.37.69-.91Z" fill="#fff"/><path id="a5da57b6-270c-449a-8098-adbb55976d7d" data-name="path21" d="M68,14a.89.89,0,0,1-.26,0c-.23,0-.33-.09-.33-.28s.16-1,.27-1.67h.49l.13-.88h-.49l.11-.55h-1s-.37,2.15-.42,2.49a7.82,7.82,0,0,0-.13,1,.7.7,0,0,0,.76.8,2.28,2.28,0,0,0,.69-.12L68,14Z" fill="#fff"/><path id="e173bdad-3d4e-4217-9426-790c9ed26331" data-name="path23" d="M70.89,14.8a3.28,3.28,0,0,1-1,.15,1.45,1.45,0,0,1-1.63-1.63c0-1.25.71-2.17,1.67-2.17a1.22,1.22,0,0,1,1.3,1.32,4.14,4.14,0,0,1-.12.9H69.22c-.06.53.28.75.84.75a2.24,2.24,0,0,0,1-.23l-.16.91Zm-.5-2.14c0-.08.1-.66-.45-.66-.3,0-.52.24-.61.66Z" fill="#fff"/><path id="b5ca2c93-7ac1-43d6-b6b6-487ccde98a00" data-name="path25" d="M64,12.39a1.06,1.06,0,0,0,.73,1c.39.18.45.24.45.4s-.17.33-.55.33a2.72,2.72,0,0,1-.87-.14s-.12.8-.13.84a3.91,3.91,0,0,0,1,.11c1,0,1.49-.39,1.49-1.22a1,1,0,0,0-.68-1c-.4-.18-.45-.23-.45-.4s.16-.3.47-.3a6.24,6.24,0,0,1,.69.06l.14-.85a6.48,6.48,0,0,0-.85-.07c-1.08,0-1.45.56-1.44,1.24Z" fill="#fff"/><path id="ae5a9a53-a451-46cc-bba1-6141d32925fd" data-name="path27" d="M84.72,14.89h-.91l0-.34A1.16,1.16,0,0,1,83,15c-.7,0-1.17-.61-1.17-1.52,0-1.22.72-2.24,1.57-2.24a1.07,1.07,0,0,1,.92.5l.22-1.3h.95l-.74,4.49Zm-1.42-.84c.45,0,.77-.5.77-1.23,0-.46-.18-.71-.51-.71s-.75.5-.75,1.22C82.81,13.81,83,14.05,83.3,14.05Z" fill="#fff"/><path id="b4ce1af5-bb80-4bcd-87f6-ddcdeeb4c69c" data-name="path29" d="M80.34,11.24c-.12,1.13-.34,2.28-.5,3.41l0,.25h1c.34-2.24.42-2.68,1-2.62a3.62,3.62,0,0,1,.37-1.06c-.4-.09-.63.14-.92.58a3.53,3.53,0,0,0,0-.56Z" fill="#fff"/><path id="a87eaa08-bd29-4ce2-a50e-fd7379d0e2ff" data-name="path31" d="M71.89,11.24c-.12,1.13-.34,2.28-.5,3.41l0,.25h1c.34-2.24.43-2.68,1-2.62a3.38,3.38,0,0,1,.36-1.06c-.4-.09-.63.14-.92.58a5.32,5.32,0,0,0,.06-.56Z" fill="#fff"/></g><g id="b9b870d0-a0b7-4305-b898-26a3e7917d89" data-name="Page-1"><path d="M190,25.25h-33.7a2.77,2.77,0,0,1-2.76-2.77V2.82A2.77,2.77,0,0,1,156.29.05H190a2.77,2.77,0,0,1,2.76,2.77V22.48A2.77,2.77,0,0,1,190,25.25ZM156.29,1.56A1.25,1.25,0,0,0,155,2.82V22.48a1.26,1.26,0,0,0,1.25,1.26H190a1.27,1.27,0,0,0,1.26-1.26V2.82A1.26,1.26,0,0,0,190,1.56Z" fill="#fff"/><path id="af49a582-b7cc-4b11-92de-7eea1b575515" data-name="Path" d="M155,12h1.74l.39-.94H158l.39.94h3.43v-.72l.31.73h1.78l.3-.74V12h8.53V10.4h.16c.12,0,.15,0,.15.21V12h4.41v-.36a3.53,3.53,0,0,0,1.64.36H181l.4-.94h.88l.39.94h3.58v-.89l.54.89h2.86V6h-2.83v.7l-.4-.7h-2.91v.7l-.36-.7h-3.93a3.63,3.63,0,0,0-1.71.35V6h-2.71v.35A1.7,1.7,0,0,0,173.61,6H163.7L163,7.56,162.35,6h-3.12v.7l-.34-.7h-2.67L155,8.84V12Zm11-.85H165V7.77l-1.48,3.33h-.9l-1.48-3.33V11.1H159l-.39-.95h-2.13l-.39.95H155l1.83-4.25h1.51l1.74,4v-4h1.66l1.34,2.88,1.23-2.88H166V11.1Zm-7.73-1.83-.7-1.7-.69,1.7Zm11.89,1.83h-3.41V6.85h3.41v.88h-2.39V8.5h2.33v.87h-2.33v.85h2.39v.88ZM175,8a1.22,1.22,0,0,1-.72,1.14,1.17,1.17,0,0,1,.5.35,1.19,1.19,0,0,1,.17.78v.84h-1v-.54a1.33,1.33,0,0,0-.16-.83,1.06,1.06,0,0,0-.75-.18h-1.09V11.1h-1V6.85h2.34a2.41,2.41,0,0,1,1.24.2A1,1,0,0,1,175,8Zm-1.29.63a.92.92,0,0,1-.51.09h-1.24V7.77h1.26a1,1,0,0,1,.48.07.41.41,0,0,1,.22.38A.43.43,0,0,1,173.68,8.62Zm2.92,2.48h-1V6.85h1Zm12.09,0h-1.44l-1.94-3.19V11.1h-2.08l-.39-.95h-2.12l-.39.95h-1.19a2.14,2.14,0,0,1-1.48-.47A2.13,2.13,0,0,1,177.11,9a2.26,2.26,0,0,1,.55-1.67,2.08,2.08,0,0,1,1.55-.49h1v.91h-1a1,1,0,0,0-.78.25,1.37,1.37,0,0,0-.3,1,1.46,1.46,0,0,0,.28,1,1,1,0,0,0,.71.22h.46L181,6.85h1.53l1.73,4v-4h1.55l1.8,3v-3h1Zm-6.2-1.83-.71-1.7-.7,1.7Z" fill="#fff"/><path id="be65a764-6adb-4be8-803b-86297065072b" data-name="Path" d="M191.29,17.89a1.58,1.58,0,0,1-1.38.54h-2v-.91h2a.56.56,0,0,0,.41-.1.37.37,0,0,0,.13-.28.33.33,0,0,0-.13-.28.48.48,0,0,0-.36-.1c-1,0-2.15,0-2.15-1.31,0-.62.39-1.27,1.46-1.27h2v-.85h-1.88a2.15,2.15,0,0,0-1.28.35v-.35h-2.8a1.94,1.94,0,0,0-1.22.35v-.35h-5v.35a2.68,2.68,0,0,0-1.37-.35h-3.29v.35a2.38,2.38,0,0,0-1.44-.35h-3.69l-.84.91-.79-.91h-5.5v5.94h5.4l.87-.92.82.92h3.32V17.88h.33a3.74,3.74,0,0,0,1.42-.21v1.6h2.75V17.72h.13c.17,0,.19,0,.19.18v1.37h8.33a2.41,2.41,0,0,0,1.39-.38v.38h2.65a3.45,3.45,0,0,0,1.49-.28Zm-16.53-2.28c0,1.18-.88,1.42-1.78,1.42h-1.27v1.43h-2l-1.26-1.41-1.31,1.41h-4V14.21h4.11l1.25,1.39,1.3-1.39H173C173.85,14.21,174.76,14.43,174.76,15.61Zm-8.11,1.95h-2.51v-.84h2.24v-.87h-2.24v-.77h2.56l1.11,1.24Zm4,.49-1.57-1.73,1.57-1.68ZM173,16.16h-1.32V15.08H173c.37,0,.62.15.62.52S173.4,16.16,173,16.16Zm6.91-1.95h3.41v.87h-2.4v.78h2.34v.87h-2.34v.84h2.4v.88h-3.41V14.21Zm-1.31,2.27a1.2,1.2,0,0,1,.5.36,1.31,1.31,0,0,1,.17.78v.84h-1v-.53c0-.26,0-.64-.16-.84s-.38-.18-.75-.18h-1.09v1.55h-1V14.21h2.36a2.53,2.53,0,0,1,1.23.2,1,1,0,0,1,.52.94A1.18,1.18,0,0,1,178.61,16.48Zm-.58-.54a1,1,0,0,1-.5.09h-1.24v-1h1.25a1,1,0,0,1,.49.07.41.41,0,0,1,.21.39A.45.45,0,0,1,178,15.94Zm9.22.28a1.2,1.2,0,0,1,.3.9c0,.91-.57,1.34-1.6,1.34h-2v-.91h2a.62.62,0,0,0,.42-.11.37.37,0,0,0,.12-.28.37.37,0,0,0-.13-.28.56.56,0,0,0-.36-.09c-1,0-2.15,0-2.15-1.32,0-.62.39-1.26,1.46-1.26h2v.9h-1.88a.72.72,0,0,0-.41.08.32.32,0,0,0-.15.3.34.34,0,0,0,.22.32,1.15,1.15,0,0,0,.4,0h.55A1.67,1.67,0,0,1,187.25,16.22Zm4.05-1.14h-1.86a.74.74,0,0,0-.42.07.35.35,0,0,0-.15.31.32.32,0,0,0,.23.32,1.37,1.37,0,0,0,.39,0l.55,0a1.62,1.62,0,0,1,1.16.34.52.52,0,0,1,.1.11Z" fill="#fff"/></g><g id="fd7eec3f-d540-4a5e-bf4a-85ebe812ad56" data-name="Page-1"><path d="M36.46,25.2H2.77A2.78,2.78,0,0,1,0,22.43V2.77A2.77,2.77,0,0,1,2.77,0H36.46a2.77,2.77,0,0,1,2.77,2.77V22.43A2.78,2.78,0,0,1,36.46,25.2ZM2.77,1.51A1.25,1.25,0,0,0,1.51,2.77V22.43a1.26,1.26,0,0,0,1.26,1.26H36.46a1.27,1.27,0,0,0,1.26-1.26V2.77a1.26,1.26,0,0,0-1.26-1.26Z" fill="#fff"/><path id="b3380066-d3c6-4add-a6b4-4a02903038a1" data-name="Shape" d="M14.74,17.56l1.68-9.84h2.69l-1.68,9.84Z" fill="#fff"/><path id="b994ff3f-fc1e-47da-9ad0-2e5526ba5f37" data-name="Shape" d="M27.12,7.93a6.89,6.89,0,0,0-2.4-.41c-2.65,0-4.52,1.33-4.54,3.25,0,1.41,1.33,2.2,2.35,2.67s1.4.79,1.39,1.22c0,.66-.83,1-1.6,1a5.72,5.72,0,0,1-2.53-.51L19.45,15l-.38,2.2a8.35,8.35,0,0,0,3,.53c2.82,0,4.65-1.32,4.67-3.36,0-1.12-.7-2-2.25-2.68-.94-.46-1.51-.76-1.51-1.22s.49-.85,1.54-.85a5,5,0,0,1,2,.38l.24.11.36-2.13" fill="#fff"/><path id="bd65f54a-a725-438c-b55c-6185114d1cfa" data-name="Path" d="M34,7.72H32a1.33,1.33,0,0,0-1.4.81l-4,9h2.82s.46-1.22.57-1.48h3.43l.33,1.48H36.2Zm-3.29,6.35,1.07-2.75s.22-.57.35-.94l.18.85s.52,2.35.62,2.84Z" fill="#fff"/><path id="f8c83f87-8171-4a73-b32d-759df461bf40" data-name="Path" d="M12.47,7.72,9.84,14.43l-.28-1.36A7.63,7.63,0,0,0,5.84,8.94l2.41,8.61h2.83l4.23-9.82H12.47" fill="#fff"/><path id="b4d7abdf-2be9-4a7f-a90c-e693368ce13f" data-name="Shape" d="M7.39,7.72H3.06l0,.2a8.93,8.93,0,0,1,6.52,5.15l-1-4.52a1.12,1.12,0,0,0-1.21-.83" fill="#fff"/></g><g id="bb2f1b7f-dd46-4558-9d38-f48122c0cb78" data-name="Page-1"><path d="M241.17,25.25h-33.7a2.77,2.77,0,0,1-2.76-2.77V2.82A2.77,2.77,0,0,1,207.47.05h33.7a2.77,2.77,0,0,1,2.76,2.77V22.48A2.77,2.77,0,0,1,241.17,25.25ZM207.47,1.56a1.26,1.26,0,0,0-1.26,1.26V22.48a1.27,1.27,0,0,0,1.26,1.26h33.7a1.26,1.26,0,0,0,1.25-1.26V2.82a1.25,1.25,0,0,0-1.25-1.26Z" fill="#fff"/></g><path d="M213.17,8.59a2.85,2.85,0,0,0-1.65-.43h-2.63a.31.31,0,0,0-.35.31l-1.07,6.71a.23.23,0,0,0,.05.18.2.2,0,0,0,.17.08h1.25a.31.31,0,0,0,.36-.31l.29-1.81a.32.32,0,0,1,.12-.21A.52.52,0,0,1,210,13l.28,0h.31l.23,0a3,3,0,0,0,2.22-.8,3,3,0,0,0,.81-2.21A1.57,1.57,0,0,0,213.17,8.59Zm-1.35,2a.94.94,0,0,1-.43.75,2,2,0,0,1-1,.19h-.54l.28-1.76a.19.19,0,0,1,.21-.18h.31a1.82,1.82,0,0,1,1,.19C211.82,9.94,211.88,10.2,211.82,10.61Z" fill="#fff"/><path d="M241,8.16h-1.21a.2.2,0,0,0-.22.18l-1.07,6.84v0a.25.25,0,0,0,.06.16.22.22,0,0,0,.17.07h1.08a.31.31,0,0,0,.35-.31l1.07-6.73h0C241.17,8.23,241.1,8.16,241,8.16Z" fill="#fff"/><path d="M226.24,10.8a.24.24,0,0,0-.06-.15.19.19,0,0,0-.15-.08h-1.27a.34.34,0,0,0-.29.17l-1.75,2.57L222,10.84a.35.35,0,0,0-.36-.27H220.4a.19.19,0,0,0-.14.08.21.21,0,0,0-.07.15s.11.35.32,1,.45,1.3.69,2,.38,1.11.39,1.15a15,15,0,0,0-1.35,2,.19.19,0,0,0,.21.21h1.27A.36.36,0,0,0,222,17l4.19-6A.17.17,0,0,0,226.24,10.8Z" fill="#fff"/><path d="M238,10.57h-1.25c-.15,0-.25.19-.28.55a1.71,1.71,0,0,0-1.56-.66,2.69,2.69,0,0,0-2,.89,3,3,0,0,0-.83,2.09,2.09,2.09,0,0,0,.57,1.54,2,2,0,0,0,1.52.58,2.63,2.63,0,0,0,1-.2,1.94,1.94,0,0,0,.78-.52s0,.06,0,.14a1.06,1.06,0,0,0,0,.2c0,.18.07.26.21.26h1.14a.32.32,0,0,0,.36-.31l.68-4.29a.23.23,0,0,0,0-.18A.21.21,0,0,0,238,10.57Zm-2.15,3.25a1.4,1.4,0,0,1-1,.41,1.1,1.1,0,0,1-.77-.27.89.89,0,0,1-.3-.72,1.43,1.43,0,0,1,.41-1,1.39,1.39,0,0,1,1-.42,1.11,1.11,0,0,1,.77.27,1,1,0,0,1,.3.75A1.37,1.37,0,0,1,235.89,13.82Z" fill="#fff"/><path d="M219.35,10.57H218.1c-.15,0-.25.19-.28.55a1.75,1.75,0,0,0-1.56-.66,2.69,2.69,0,0,0-2,.89,3,3,0,0,0-.83,2.09A2.09,2.09,0,0,0,214,15a2,2,0,0,0,1.52.58,2.62,2.62,0,0,0,1-.2,2.14,2.14,0,0,0,.79-.52.94.94,0,0,0-.07.34c0,.18.07.26.21.26h1.14a.32.32,0,0,0,.36-.31l.67-4.29a.19.19,0,0,0,0-.18A.21.21,0,0,0,219.35,10.57Zm-2.15,3.25a1.42,1.42,0,0,1-1,.41,1.08,1.08,0,0,1-.77-.27.92.92,0,0,1-.29-.72,1.43,1.43,0,0,1,.41-1,1.39,1.39,0,0,1,1-.42,1.11,1.11,0,0,1,.77.27,1,1,0,0,1,.3.75A1.32,1.32,0,0,1,217.2,13.82Z" fill="#fff"/><path d="M231.86,8.59a2.85,2.85,0,0,0-1.65-.43h-2.62a.31.31,0,0,0-.36.31l-1.07,6.71a.23.23,0,0,0,.05.18.2.2,0,0,0,.17.08h1.35a.26.26,0,0,0,.26-.21l.3-1.91a.27.27,0,0,1,.11-.21.52.52,0,0,1,.25-.11l.28,0h.31l.23,0a3,3,0,0,0,2.22-.8A3,3,0,0,0,232.5,10,1.57,1.57,0,0,0,231.86,8.59Zm-1.68,2.71a2,2,0,0,1-1.09.25h-.53l.28-1.76a.21.21,0,0,1,.22-.18h.29a4.3,4.3,0,0,1,.58,0,.85.85,0,0,1,.41.21.63.63,0,0,1,.2.5A1.07,1.07,0,0,1,230.18,11.3Z" fill="#fff"/></svg>