<svg id="f36b8322-9fc3-4236-b6dc-5ac1d65cd2ad" data-name="Layer 1" xmlns="http://www.w3.org/2000/svg" viewBox="0 0 55.87 12.38"><title>Untitled-1 [Recovered]</title><path d="M20,9.42a2.51,2.51,0,0,1-1-.2,2.06,2.06,0,0,1-.77-.38,2.49,2.49,0,0,1-.49-.79,2.85,2.85,0,0,1,0-1.94,2.4,2.4,0,0,1,.49-.77A3.15,3.15,0,0,1,19,4.65a2.57,2.57,0,0,1,1.94,0,2.58,2.58,0,0,1,.77.53,2.35,2.35,0,0,1,.5.79,2.73,2.73,0,0,1,0,1.87,2.22,2.22,0,0,1-.5.78,2.44,2.44,0,0,1-.77.54A2.55,2.55,0,0,1,20,9.42ZM18.55,7a2,2,0,0,0,.11.63,1.71,1.71,0,0,0,.3.5,1.35,1.35,0,0,0,1,.45,1.3,1.3,0,0,0,.55-.12,1.37,1.37,0,0,0,.45-.34,1.55,1.55,0,0,0,.38-.5,1.94,1.94,0,0,0,0-1.26A1.9,1.9,0,0,0,21,5.81a1.67,1.67,0,0,0-.45-.34A1.46,1.46,0,0,0,20,5.36a1.3,1.3,0,0,0-.55.12,1.28,1.28,0,0,0-.45.34,1.68,1.68,0,0,0-.3.52A1.75,1.75,0,0,0,18.55,7Z" fill="#fff"/><path d="M28.83,7.67a1.43,1.43,0,0,1-.15.7,1.66,1.66,0,0,1-.43.52,1.71,1.71,0,0,1-.63.32,2.46,2.46,0,0,1-.76.12H23.79V2.91h3.34a1.15,1.15,0,0,1,.6.14,1.3,1.3,0,0,1,.46.38,1.48,1.48,0,0,1,.29.52,1.71,1.71,0,0,1,.11.59,1.75,1.75,0,0,1-.24.89,1.54,1.54,0,0,1-.68.61,1.55,1.55,0,0,1,.87.59A1.66,1.66,0,0,1,28.83,7.67Zm-4-3.87V5.74h1.86A.84.84,0,0,0,27,5.67a1,1,0,0,0,.28-.2,1,1,0,0,0,.2-.3,1.19,1.19,0,0,0,.06-.37.93.93,0,0,0-.24-.68.71.71,0,0,0-.59-.27Zm3,3.7a1.59,1.59,0,0,0-.07-.38,1,1,0,0,0-.19-.34.71.71,0,0,0-.27-.21.74.74,0,0,0-.36-.09H24.8V8.42h2.06a.89.89,0,0,0,.36-.07.81.81,0,0,0,.3-.21.87.87,0,0,0,.2-.31,1.3,1.3,0,0,0,.08-.34Z" fill="#fff"/><path d="M31.67,9.42a1.31,1.31,0,0,1-1.12-.49,2.26,2.26,0,0,1-.38-1.43V4.59h1V7.3c0,.85.31,1.27.91,1.27a1.34,1.34,0,0,0,.8-.26,1.61,1.61,0,0,0,.58-.76V4.64h1V8.16a.5.5,0,0,0,.06.24.26.26,0,0,0,.21.08v.85h-.44a.7.7,0,0,1-.46-.16.48.48,0,0,1-.2-.37V8.32a2.22,2.22,0,0,1-.82.79A2.41,2.41,0,0,1,31.67,9.42Z" fill="#fff"/><path d="M40.4,9.33h-1V6.69a1.71,1.71,0,0,0-.21-1,.69.69,0,0,0-.63-.31,1.32,1.32,0,0,0-.44.08,1.34,1.34,0,0,0-.4.23,1.88,1.88,0,0,0-.34.35,1.6,1.6,0,0,0-.23.45V9.33h-1V4.6h.9v1a2,2,0,0,1,.73-.73A2.56,2.56,0,0,1,39,4.57a1.38,1.38,0,0,1,.69.16,1.13,1.13,0,0,1,.43.41,2.09,2.09,0,0,1,.22.62,4.62,4.62,0,0,1,.06.74Z" fill="#fff"/><path d="M43.94,9.42a2.23,2.23,0,0,1-1.59-.7,2.19,2.19,0,0,1-.47-.79,2.59,2.59,0,0,1-.17-1,2.67,2.67,0,0,1,.16-1,2.57,2.57,0,0,1,.44-.77A2.16,2.16,0,0,1,43,4.7a1.79,1.79,0,0,1,.85-.19,1.76,1.76,0,0,1,1,.27,1.9,1.9,0,0,1,.68.7V2.73h1V8.16a.4.4,0,0,0,0,.24.27.27,0,0,0,.22.08v.85h-.41a.78.78,0,0,1-.49-.16.51.51,0,0,1-.21-.39V8.42a1.91,1.91,0,0,1-.71.7A2,2,0,0,1,43.94,9.42Zm.24-.85a1.31,1.31,0,0,0,.44-.07A2.05,2.05,0,0,0,45,8.3a1.26,1.26,0,0,0,.31-.3,1.07,1.07,0,0,0,.22-.37V6.39A1.52,1.52,0,0,0,45.3,6,1.3,1.3,0,0,0,45,5.66a1.5,1.5,0,0,0-.39-.22,1.54,1.54,0,0,0-.43-.06,1.06,1.06,0,0,0-.55.13,1.36,1.36,0,0,0-.43.36A1.74,1.74,0,0,0,42.77,7a2.18,2.18,0,0,0,.11.61,1.77,1.77,0,0,0,.32.5,1.6,1.6,0,0,0,.46.35A1.17,1.17,0,0,0,44.18,8.57Z" fill="#fff"/><path d="M48.23,2.73h1V8a.64.64,0,0,0,.13.42.54.54,0,0,0,.38.15h.23l.26-.08.14.77a2,2,0,0,1-.52.16,3.31,3.31,0,0,1-.53.06,1.11,1.11,0,0,1-.8-.28,1.08,1.08,0,0,1-.28-.8Z" fill="#fff"/><path d="M53.53,9.42a2.51,2.51,0,0,1-1-.2,2.21,2.21,0,0,1-.8-.5,2.44,2.44,0,0,1-.51-.79,2.4,2.4,0,0,1-.17-1,2.42,2.42,0,0,1,.68-1.76,2.13,2.13,0,0,1,.76-.53,2.57,2.57,0,0,1,1.94,0,2.42,2.42,0,0,1,.76.53A2.27,2.27,0,0,1,55.7,6a2.48,2.48,0,0,1,.17,1v.36H52.13a1.68,1.68,0,0,0,.16.57,1.48,1.48,0,0,0,.31.43,1.22,1.22,0,0,0,.44.28,1.4,1.4,0,0,0,.53.11,1.58,1.58,0,0,0,.38,0,1.42,1.42,0,0,0,.36-.14,1.37,1.37,0,0,0,.29-.24.88.88,0,0,0,.2-.3l.85.25a2,2,0,0,1-.81.87A2.51,2.51,0,0,1,53.53,9.42ZM55,6.61a2,2,0,0,0-.14-.55,1.69,1.69,0,0,0-.31-.43,1.74,1.74,0,0,0-.45-.27,1.4,1.4,0,0,0-.53-.11,1.36,1.36,0,0,0-.53.11,1.34,1.34,0,0,0-.44.27,1.22,1.22,0,0,0-.31.43,1.73,1.73,0,0,0-.15.55Z" fill="#fff"/><rect width="7.65" height="4.73" fill="#60b3e4"/><polygon points="7.65 0 7.65 4.73 6.34 0 7.65 0" fill="#3f9cd7"/><rect x="7.65" width="4.73" height="7.65" fill="#e64c3c"/><polygon points="12.38 7.65 7.65 7.65 12.38 6.34 12.38 7.65" fill="#c54132"/><rect x="4.74" y="7.65" width="7.65" height="4.73" fill="#333"/><polygon points="4.73 12.38 4.73 7.65 6.05 12.38 4.73 12.38" fill="#2b2b2b"/><rect y="4.73" width="4.73" height="7.65" fill="#3a5c70"/><polygon points="0 4.73 4.73 4.73 0 6.05 0 4.73" fill="#324d5e"/></svg>