<svg id="b3579334-f497-43b2-acf7-613edf228b60" data-name="Layer 1" xmlns="http://www.w3.org/2000/svg" viewBox="0 0 16.04 14.7"><title>Untitled-1 [Recovered]</title><path d="M16,1.93l-.06-.06a.52.52,0,0,0-.38-.17H3.43l-.05-.3A1.66,1.66,0,0,0,1.73,0H.51A.5.5,0,0,0,0,.51.51.51,0,0,0,.51,1H1.75a.63.63,0,0,1,.63.52L3.43,7.86a.33.33,0,0,0,0,.14l.17,1.08a2,2,0,0,0,2,1.68h8.12a.49.49,0,0,0,.51-.5.51.51,0,0,0-.51-.51H5.6a1,1,0,0,1-1-.81l-.11-.57H14a.45.45,0,0,0,.28,0A.57.57,0,0,0,14.53,8L16,2.38A.48.48,0,0,0,16,1.93Zm-1.07.82L13.65,7.37H4.38L3.62,2.75Z"/><path d="M5.76,11.25A1.72,1.72,0,1,0,7.47,13,1.73,1.73,0,0,0,5.76,11.25Zm0,1a.66.66,0,0,1,.66.68.69.69,0,0,1-.68.68.68.68,0,0,1,0-1.36Z"/><path d="M11.43,11.25A1.73,1.73,0,1,0,13.15,13,1.73,1.73,0,0,0,11.43,11.25Zm0,1a.68.68,0,0,1,.69.68.7.7,0,0,1-.69.68.69.69,0,0,1-.68-.68A.67.67,0,0,1,11.41,12.29Z" /></svg>
