<?xml version="1.0" encoding="UTF-8" standalone="no"?>
<!DOCTYPE svg PUBLIC "-//W3C//DTD SVG 1.1//EN" "http://www.w3.org/Graphics/SVG/1.1/DTD/svg11.dtd">
<svg width="100%" height="100%" viewBox="0 0 17 22" version="1.1" xmlns="http://www.w3.org/2000/svg" xmlns:xlink="http://www.w3.org/1999/xlink" xml:space="preserve" xmlns:serif="http://www.serif.com/" style="fill-rule:evenodd;clip-rule:evenodd;stroke-linejoin:round;stroke-miterlimit:1.41421;">
    <g transform="matrix(1,0,0,1,-701,-31)">
        <path id="user" d="M707.093,42.725C705.008,41.774 703.55,39.622 703.55,37.125C703.55,33.748 706.219,31 709.5,31C712.781,31 715.45,33.748 715.45,37.125C715.45,39.622 713.991,41.774 711.907,42.725C715.386,43.747 718,46.913 718,50.541L718,51.125C718,51.605 717.624,51.995 717.15,52L701.85,52C701.38,52 701,51.608 701,51.125L701,50.541C701,46.913 703.614,43.747 707.093,42.725ZM702.707,50.25L716.292,50.25C716.125,46.901 713.082,44.125 709.5,44.125C705.917,44.125 702.875,46.901 702.707,50.25ZM709.5,32.75C707.157,32.75 705.25,34.713 705.25,37.125C705.25,39.537 707.157,41.5 709.5,41.5C711.843,41.5 713.75,39.537 713.75,37.125C713.75,34.713 711.843,32.75 709.5,32.75Z" style="fill:white;"/>
    </g>
</svg>
